<svg width="96" height="96" viewBox="0 0 96 96" fill="none" xmlns="http://www.w3.org/2000/svg">
<path fill-rule="evenodd" clip-rule="evenodd" d="M54.8989 43.619C55.6674 44.7805 51.8324 54 50.9409 54H47.444C47.444 54 46.4449 42.1671 47.444 42.0219C48.4431 41.8767 54.1303 42.4575 54.8989 43.619ZM49.0647 49.6999C48.8379 49.4682 49.2168 43.6001 50.0486 43.716C52.2533 43.6934 53 44.9128 53 46.1095C53 47.3063 49.2916 49.9316 49.0647 49.6999Z" fill="#FC7F7F"/>
<path d="M54.8989 43.619L55.3158 43.3431L54.8989 43.619ZM47.444 54V54.5H46.9845L46.9458 54.0421L47.444 54ZM50.0486 43.716L50.0537 44.216L50.0165 44.2163L49.9796 44.2112L50.0486 43.716ZM49.0647 49.6999L48.7075 50.0497L48.7075 50.0497L49.0647 49.6999ZM50.9409 53.5C50.8026 53.5 50.7496 53.5745 50.8099 53.5212C50.8494 53.4864 50.9121 53.418 50.9969 53.3037C51.1643 53.078 51.3709 52.7379 51.6028 52.3051C52.0642 51.4441 52.5954 50.2736 53.0778 49.0603C53.5603 47.8466 53.9876 46.6064 54.2459 45.606C54.3755 45.1042 54.4585 44.6781 54.4881 44.3532C54.5029 44.1906 54.5029 44.0672 54.4936 43.9797C54.4836 43.8846 54.4666 43.8718 54.4819 43.8949L55.3158 43.3431C55.4272 43.5114 55.4703 43.7067 55.4881 43.8743C55.5066 44.0494 55.5022 44.2432 55.484 44.4439C55.4474 44.8455 55.3499 45.3303 55.2141 45.8561C54.9417 46.9111 54.4986 48.1935 54.007 49.4298C53.5153 50.6666 52.9686 51.8736 52.4842 52.7775C52.2432 53.2272 52.01 53.6164 51.8 53.8995C51.6961 54.0396 51.5857 54.1703 51.4715 54.2711C51.3781 54.3535 51.1907 54.5 50.9409 54.5V53.5ZM47.444 53.5H50.9409V54.5H47.444V53.5ZM47.5159 42.5167C47.7084 42.4888 47.7566 42.3442 47.7262 42.4049C47.708 42.4411 47.6781 42.5252 47.6473 42.6775C47.587 42.9753 47.5452 43.4177 47.5221 43.9755C47.4762 45.0837 47.5066 46.5595 47.5689 48.0444C47.6311 49.5263 47.7244 51.0049 47.8023 52.1138C47.8412 52.6681 47.8763 53.1295 47.9015 53.4522C47.9142 53.6136 47.9244 53.7402 47.9314 53.8264C47.9349 53.8695 47.9377 53.9025 47.9395 53.9247C47.9404 53.9357 47.9411 53.9441 47.9416 53.9497C47.9418 53.9525 47.942 53.9546 47.9421 53.9559C47.9422 53.9566 47.9422 53.9571 47.9422 53.9575C47.9422 53.9576 47.9423 53.9578 47.9423 53.9578C47.9423 53.9579 47.9423 53.9579 47.444 54C46.9458 54.0421 46.9458 54.042 46.9458 54.0419C46.9458 54.0418 46.9458 54.0416 46.9458 54.0414C46.9457 54.0411 46.9457 54.0405 46.9456 54.0397C46.9455 54.0383 46.9453 54.0361 46.9451 54.0332C46.9446 54.0274 46.9439 54.0188 46.9429 54.0074C46.941 53.9848 46.9383 53.9513 46.9347 53.9077C46.9276 53.8205 46.9173 53.6928 46.9046 53.5303C46.8791 53.2054 46.8439 52.7412 46.8048 52.1839C46.7265 51.0696 46.6325 49.5809 46.5698 48.0864C46.5072 46.5949 46.4753 45.0853 46.523 43.934C46.5467 43.362 46.5908 42.8562 46.6671 42.4791C46.7046 42.2939 46.7557 42.109 46.8326 41.9558C46.8973 41.8272 47.0548 41.5732 47.3721 41.5271L47.5159 42.5167ZM54.4819 43.8949C54.4517 43.8493 54.3617 43.7609 54.1583 43.6493C53.964 43.5426 53.7063 43.4364 53.3944 43.3341C52.7715 43.1297 51.9851 42.9578 51.1762 42.8237C50.3699 42.6901 49.556 42.5965 48.8843 42.5454C48.1933 42.4929 47.7033 42.4895 47.5159 42.5167L47.3721 41.5271C47.6843 41.4818 48.2799 41.4965 48.9602 41.5483C49.6599 41.6016 50.5032 41.6986 51.3397 41.8372C52.1735 41.9754 53.0154 42.1573 53.7062 42.3839C54.0512 42.4971 54.3717 42.6257 54.6394 42.7726C54.898 42.9145 55.1539 43.0983 55.3158 43.3431L54.4819 43.8949ZM49.9796 44.2112C50.2089 44.2431 50.2685 44.0511 50.1874 44.1868C50.1325 44.2786 50.0646 44.4479 49.9939 44.703C49.8553 45.2032 49.7406 45.903 49.6564 46.6347C49.5728 47.3621 49.5218 48.0994 49.5056 48.6652C49.4975 48.9492 49.4984 49.1818 49.5071 49.3449C49.5115 49.4279 49.5174 49.481 49.5222 49.5093C49.5247 49.524 49.525 49.5202 49.52 49.5052C49.52 49.5051 49.4976 49.4273 49.422 49.3501L48.7075 50.0497C48.6177 49.958 48.5823 49.8547 48.5705 49.8188C48.5537 49.7681 48.5433 49.7181 48.5364 49.6772C48.5222 49.5941 48.5138 49.4975 48.5085 49.3981C48.4977 49.1964 48.4975 48.9334 48.506 48.6366C48.5231 48.0406 48.5763 47.2746 48.663 46.5205C48.7492 45.7708 48.8709 45.0108 49.0302 44.436C49.1085 44.1537 49.2048 43.8817 49.329 43.6739C49.4269 43.5099 49.6803 43.1599 50.1175 43.2208L49.9796 44.2112ZM52.5 46.1095C52.5 45.6122 52.346 45.1496 52.0016 44.8132C51.6594 44.4788 51.064 44.2056 50.0537 44.216L50.0434 43.216C51.2379 43.2038 52.1181 43.529 52.7004 44.0979C53.2806 44.6647 53.5 45.4101 53.5 46.1095H52.5ZM49.422 49.3501C49.3248 49.2508 49.2149 49.2247 49.1609 49.2176C49.1069 49.2105 49.0695 49.2168 49.0618 49.2181C49.0461 49.2208 49.0567 49.2208 49.1046 49.2006C49.1941 49.1628 49.3332 49.0893 49.5144 48.9784C49.8719 48.7597 50.3385 48.4293 50.802 48.0525C51.2667 47.6746 51.7125 47.2627 52.037 46.8831C52.1994 46.6931 52.322 46.5221 52.4017 46.3766C52.4852 46.2243 52.5 46.139 52.5 46.1095H53.5C53.5 46.3793 53.3989 46.6378 53.2787 46.8572C53.1547 47.0835 52.9858 47.3121 52.7971 47.5329C52.4192 47.9749 51.9236 48.4293 51.4329 48.8283C50.9409 49.2284 50.4379 49.5857 50.0363 49.8314C49.8379 49.9528 49.65 50.0558 49.4934 50.1219C49.4181 50.1537 49.3258 50.1874 49.2308 50.2037C49.1835 50.2118 49.1124 50.2198 49.031 50.2091C48.9497 50.1985 48.8188 50.1634 48.7075 50.0497L49.422 49.3501Z" fill="#FC7F7F"/>
<path fill-rule="evenodd" clip-rule="evenodd" d="M41.1011 43.619C40.3326 44.7805 44.1676 54 45.0591 54H48.556C48.556 54 49.5551 42.1671 48.556 42.0219C47.5569 41.8767 41.8697 42.4575 41.1011 43.619ZM46.9353 49.6999C47.1621 49.4682 46.7832 43.6001 45.9514 43.716C43.7467 43.6934 43 44.9128 43 46.1095C43 47.3063 46.7084 49.9316 46.9353 49.6999Z" fill="#FC7F7F"/>
<path d="M41.1011 43.619L40.6842 43.3431L41.1011 43.619ZM48.556 54V54.5H49.0155L49.0542 54.0421L48.556 54ZM45.9514 43.716L45.9463 44.216L45.9835 44.2163L46.0204 44.2112L45.9514 43.716ZM46.9353 49.6999L47.2925 50.0497L47.2925 50.0497L46.9353 49.6999ZM45.0591 53.5C45.1974 53.5 45.2504 53.5745 45.1901 53.5212C45.1506 53.4864 45.0879 53.418 45.0031 53.3037C44.8357 53.078 44.6291 52.7379 44.3972 52.3051C43.9358 51.4441 43.4046 50.2736 42.9222 49.0603C42.4397 47.8466 42.0124 46.6064 41.7541 45.606C41.6245 45.1042 41.5415 44.6781 41.5119 44.3532C41.4971 44.1906 41.4971 44.0672 41.5064 43.9797C41.5164 43.8846 41.5334 43.8718 41.5181 43.8949L40.6842 43.3431C40.5728 43.5114 40.5297 43.7067 40.5119 43.8743C40.4934 44.0494 40.4978 44.2432 40.516 44.4439C40.5526 44.8455 40.6501 45.3303 40.7859 45.8561C41.0583 46.9111 41.5014 48.1935 41.993 49.4298C42.4847 50.6666 43.0314 51.8736 43.5158 52.7775C43.7568 53.2272 43.99 53.6164 44.2 53.8995C44.3039 54.0396 44.4143 54.1703 44.5285 54.2711C44.6219 54.3535 44.8093 54.5 45.0591 54.5V53.5ZM48.556 53.5H45.0591V54.5H48.556V53.5ZM48.4841 42.5167C48.2916 42.4888 48.2434 42.3442 48.2738 42.4049C48.292 42.4411 48.3219 42.5252 48.3527 42.6775C48.413 42.9753 48.4548 43.4177 48.4779 43.9755C48.5238 45.0837 48.4934 46.5595 48.4311 48.0444C48.3689 49.5263 48.2756 51.0049 48.1977 52.1138C48.1588 52.6681 48.1237 53.1295 48.0985 53.4522C48.0858 53.6136 48.0756 53.7402 48.0686 53.8264C48.0651 53.8695 48.0623 53.9025 48.0605 53.9247C48.0596 53.9357 48.0589 53.9441 48.0584 53.9497C48.0582 53.9525 48.058 53.9546 48.0579 53.9559C48.0578 53.9566 48.0578 53.9571 48.0578 53.9575C48.0578 53.9576 48.0577 53.9578 48.0577 53.9578C48.0577 53.9579 48.0577 53.9579 48.556 54C49.0542 54.0421 49.0542 54.042 49.0542 54.0419C49.0542 54.0418 49.0542 54.0416 49.0542 54.0414C49.0543 54.0411 49.0543 54.0405 49.0544 54.0397C49.0545 54.0383 49.0547 54.0361 49.0549 54.0332C49.0554 54.0274 49.0561 54.0188 49.0571 54.0074C49.059 53.9848 49.0617 53.9513 49.0653 53.9077C49.0724 53.8205 49.0827 53.6928 49.0954 53.5303C49.1209 53.2054 49.1561 52.7412 49.1952 52.1839C49.2735 51.0696 49.3675 49.5809 49.4302 48.0864C49.4928 46.5949 49.5247 45.0853 49.477 43.934C49.4533 43.362 49.4092 42.8562 49.3329 42.4791C49.2954 42.2939 49.2443 42.109 49.1674 41.9558C49.1027 41.8272 48.9452 41.5732 48.6279 41.5271L48.4841 42.5167ZM41.5181 43.8949C41.5483 43.8493 41.6383 43.7609 41.8417 43.6493C42.036 43.5426 42.2937 43.4364 42.6056 43.3341C43.2285 43.1297 44.0149 42.9578 44.8238 42.8237C45.6301 42.6901 46.444 42.5965 47.1157 42.5454C47.8067 42.4929 48.2967 42.4895 48.4841 42.5167L48.6279 41.5271C48.3157 41.4818 47.7201 41.4965 47.0398 41.5483C46.3401 41.6016 45.4968 41.6986 44.6603 41.8372C43.8265 41.9754 42.9846 42.1573 42.2938 42.3839C41.9488 42.4971 41.6283 42.6257 41.3606 42.7726C41.102 42.9145 40.8461 43.0983 40.6842 43.3431L41.5181 43.8949ZM46.0204 44.2112C45.7911 44.2431 45.7315 44.0511 45.8126 44.1868C45.8675 44.2786 45.9354 44.4479 46.0061 44.703C46.1447 45.2032 46.2594 45.903 46.3436 46.6347C46.4272 47.3621 46.4782 48.0994 46.4944 48.6652C46.5025 48.9492 46.5016 49.1818 46.4929 49.3449C46.4885 49.4279 46.4826 49.481 46.4778 49.5093C46.4753 49.524 46.475 49.5202 46.48 49.5052C46.48 49.5051 46.5024 49.4273 46.578 49.3501L47.2925 50.0497C47.3823 49.958 47.4177 49.8547 47.4295 49.8188C47.4463 49.7681 47.4567 49.7181 47.4636 49.6772C47.4778 49.5941 47.4862 49.4975 47.4915 49.3981C47.5023 49.1964 47.5025 48.9334 47.494 48.6366C47.4769 48.0406 47.4237 47.2746 47.337 46.5205C47.2508 45.7708 47.1291 45.0108 46.9698 44.436C46.8915 44.1537 46.7952 43.8817 46.671 43.6739C46.5731 43.5099 46.3197 43.1599 45.8825 43.2208L46.0204 44.2112ZM43.5 46.1095C43.5 45.6122 43.654 45.1496 43.9984 44.8132C44.3406 44.4788 44.936 44.2056 45.9463 44.216L45.9566 43.216C44.7621 43.2038 43.8819 43.529 43.2996 44.0979C42.7194 44.6647 42.5 45.4101 42.5 46.1095H43.5ZM46.578 49.3501C46.6752 49.2508 46.7851 49.2247 46.8391 49.2176C46.8931 49.2105 46.9305 49.2168 46.9382 49.2181C46.9539 49.2208 46.9433 49.2208 46.8954 49.2006C46.8059 49.1628 46.6668 49.0893 46.4856 48.9784C46.1281 48.7597 45.6615 48.4293 45.198 48.0525C44.7333 47.6746 44.2875 47.2627 43.963 46.8831C43.8006 46.6931 43.678 46.5221 43.5983 46.3766C43.5148 46.2243 43.5 46.139 43.5 46.1095H42.5C42.5 46.3793 42.6011 46.6378 42.7213 46.8572C42.8453 47.0835 43.0142 47.3121 43.2029 47.5329C43.5808 47.9749 44.0764 48.4293 44.5671 48.8283C45.0591 49.2284 45.5621 49.5857 45.9637 49.8314C46.1621 49.9528 46.35 50.0558 46.5066 50.1219C46.5819 50.1537 46.6742 50.1874 46.7692 50.2037C46.8165 50.2118 46.8876 50.2198 46.969 50.2091C47.0503 50.1985 47.1812 50.1634 47.2925 50.0497L46.578 49.3501Z" fill="#FC7F7F"/>
</svg>
